<svg version="1.1" id="Layer_1" xmlns="http://www.w3.org/2000/svg" xmlns:xlink="http://www.w3.org/1999/xlink" x="0px" y="0px"
	 width="100%" viewBox="0 0 512 512" enable-background="new 0 0 512 512" xml:space="preserve">
<path fill="#000000" opacity="1.000000" stroke="none" 
	d="
M304.000000,513.000000 
	C202.691269,513.000000 101.882530,513.000000 1.036899,513.000000 
	C1.036899,342.399567 1.036899,171.799149 1.036899,1.099354 
	C171.558746,1.099354 342.117554,1.099354 512.838196,1.099354 
	C512.838196,171.666550 512.838196,342.333252 512.838196,513.000000 
	C443.465790,513.000000 373.982880,513.000000 304.000000,513.000000 
M256.058044,397.034027 
	C250.131699,396.667236 244.133621,396.759827 238.292389,395.847870 
	C220.520370,393.073273 203.668274,387.587799 187.953644,378.554962 
	C170.225952,368.365021 155.568680,354.890472 143.330948,338.654968 
	C140.389771,334.753021 137.699234,330.662140 134.917725,325.955139 
	C134.057388,324.227600 133.237015,322.478821 132.330658,320.775757 
	C120.793900,299.098816 115.298882,275.993988 116.030533,251.444809 
	C116.147415,247.522949 116.284882,243.534332 117.073242,239.712799 
	C119.221252,229.300491 121.094284,218.763062 124.279610,208.654388 
	C126.915108,200.290604 131.265259,192.467133 135.483139,183.979172 
	C140.106171,177.679596 144.551193,171.239655 149.386719,165.107635 
	C162.211700,148.844070 178.387344,136.643265 196.899277,127.671478 
	C215.802338,118.510124 235.933914,114.052505 257.895752,114.002991 
	C262.655792,114.343719 267.415161,114.694099 272.175995,115.023445 
	C289.188812,116.200363 305.288879,120.965340 320.212494,128.922501 
	C330.108063,134.198746 339.196930,140.992355 348.623199,147.143005 
	C355.358063,151.537460 362.625885,150.899475 368.241241,145.292206 
	C382.736816,130.817505 397.240723,116.351028 411.689545,101.829765 
	C417.859650,95.628738 418.145630,86.090164 411.639740,80.282677 
	C404.321716,73.750259 396.599915,67.584892 388.564697,61.958256 
	C369.323029,48.484295 348.283936,38.682682 325.776947,31.816982 
	C303.305145,24.962027 280.516632,21.040892 256.045746,22.021887 
	C248.288025,22.347506 240.458572,22.124834 232.789536,23.128260 
	C221.508636,24.604267 210.126236,26.162355 199.184036,29.142803 
	C186.702576,32.542507 174.487411,37.118778 162.457977,41.936424 
	C139.470749,51.142540 119.290367,64.990639 101.087097,81.594307 
	C92.532333,89.397331 84.263298,97.712601 77.066368,106.752357 
	C68.995049,116.890396 62.282047,128.109848 54.336014,139.196152 
	C52.551300,142.452301 50.426586,145.570648 49.041321,148.988678 
	C43.352654,163.025085 36.726833,176.827225 32.663387,191.336609 
	C28.442797,206.407104 25.357384,222.099014 24.315325,237.688934 
	C22.504698,264.777191 24.174133,291.819061 31.958372,318.175934 
	C37.544952,337.091705 44.477352,355.381989 55.039185,372.868652 
	C59.726959,379.984955 64.190712,387.261536 69.146042,394.186401 
	C82.152069,412.361755 97.826149,428.122375 115.507362,441.613220 
	C138.549103,459.194122 164.017044,472.315674 192.116837,480.158112 
	C213.367172,486.088898 234.826920,489.887421 257.908508,488.972473 
	C269.922028,488.284363 282.175507,488.848663 293.890930,486.604370 
	C310.063354,483.506226 326.117828,479.117157 341.674530,473.705048 
	C353.030518,469.754364 363.502075,463.261414 375.044830,457.897675 
	C389.151581,447.642761 403.854340,438.100128 417.199310,426.934753 
	C430.845764,415.517212 442.021912,401.522827 452.038422,386.744873 
	C465.290649,367.193024 475.841370,346.230072 481.809570,323.383514 
	C485.831421,307.987640 489.180237,292.217072 490.646942,276.411560 
	C491.970673,262.146515 490.728760,247.582535 489.878296,233.194138 
	C489.066040,219.452621 482.497101,213.998352 468.453369,213.998093 
	C437.970398,213.997528 407.487427,213.997879 377.004456,213.997910 
	C346.521484,213.997955 316.037933,213.889969 285.555847,214.052628 
	C273.764954,214.115540 267.139526,219.880417 267.040924,232.061325 
	C266.887207,251.049469 266.991669,270.039764 267.003540,289.029175 
	C267.010651,300.370453 273.642151,306.995148 284.983978,306.997437 
	C317.798981,307.004059 350.614014,306.999786 383.429016,306.999725 
	C385.187653,306.999725 386.946289,306.999695 389.691193,306.999695 
	C386.051025,314.166321 383.134399,320.681793 379.551483,326.807526 
	C371.093933,341.267273 360.410767,353.911377 347.198273,364.284637 
	C341.185974,369.004913 334.939880,373.427368 328.092804,378.016296 
	C305.954498,390.221924 282.409332,397.195679 256.058044,397.034027 
z"/>
<path fill="#167EE6" opacity="1.000000" stroke="none" 
	d="
M328.799866,377.984924 
	C334.939880,373.427368 341.185974,369.004913 347.198273,364.284637 
	C360.410767,353.911377 371.093933,341.267273 379.551483,326.807526 
	C383.134399,320.681793 386.051025,314.166321 389.691193,306.999695 
	C386.946289,306.999695 385.187653,306.999725 383.429016,306.999725 
	C350.614014,306.999786 317.798981,307.004059 284.983978,306.997437 
	C273.642151,306.995148 267.010651,300.370453 267.003540,289.029175 
	C266.991669,270.039764 266.887207,251.049469 267.040924,232.061325 
	C267.139526,219.880417 273.764954,214.115540 285.555847,214.052628 
	C316.037933,213.889969 346.521484,213.997955 377.004456,213.997910 
	C407.487427,213.997879 437.970398,213.997528 468.453369,213.998093 
	C482.497101,213.998352 489.066040,219.452621 489.878296,233.194138 
	C490.728760,247.582535 491.970673,262.146515 490.646942,276.411560 
	C489.180237,292.217072 485.831421,307.987640 481.809570,323.383514 
	C475.841370,346.230072 465.290649,367.193024 452.038422,386.744873 
	C442.021912,401.522827 430.845764,415.517212 417.199310,426.934753 
	C403.854340,438.100128 389.151581,447.642761 374.590332,457.554565 
	C373.013062,455.174957 371.919983,453.121490 370.763062,451.104553 
	C356.780823,426.728210 342.789093,402.357269 328.799866,377.984924 
z"/>
<path fill="#FFD500" opacity="1.000000" stroke="none" 
	d="
M134.855682,184.404251 
	C131.265259,192.467133 126.915108,200.290604 124.279610,208.654388 
	C121.094284,218.763062 119.221252,229.300491 117.073242,239.712799 
	C116.284882,243.534332 116.147415,247.522949 116.030533,251.444809 
	C115.298882,275.993988 120.793900,299.098816 132.330658,320.775757 
	C133.237015,322.478821 134.057388,324.227600 134.563416,326.420135 
	C126.326454,331.417480 118.454742,335.968964 110.558998,340.478333 
	C92.043358,351.052917 73.516212,361.607361 54.993721,372.169952 
	C44.477352,355.381989 37.544952,337.091705 31.958372,318.175934 
	C24.174133,291.819061 22.504698,264.777191 24.315325,237.688934 
	C25.357384,222.099014 28.442797,206.407104 32.663387,191.336609 
	C36.726833,176.827225 43.352654,163.025085 49.041321,148.988678 
	C50.426586,145.570648 52.551300,142.452301 54.977600,139.170822 
	C64.413010,144.196701 73.195152,149.268372 82.003105,154.294830 
	C99.613159,164.344421 117.237335,174.369217 134.855682,184.404251 
z"/>
<path fill="#FF4B26" opacity="1.000000" stroke="none" 
	d="
M135.169403,184.191711 
	C117.237335,174.369217 99.613159,164.344421 82.003105,154.294830 
	C73.195152,149.268372 64.413010,144.196701 55.298615,139.002136 
	C62.282047,128.109848 68.995049,116.890396 77.066368,106.752357 
	C84.263298,97.712601 92.532333,89.397331 101.087097,81.594307 
	C119.290367,64.990639 139.470749,51.142540 162.457977,41.936424 
	C174.487411,37.118778 186.702576,32.542507 199.184036,29.142803 
	C210.126236,26.162355 221.508636,24.604267 232.789536,23.128260 
	C240.458572,22.124834 248.288025,22.347506 256.527252,22.540112 
	C256.996826,53.325657 256.984924,83.592979 256.972992,113.860298 
	C235.933914,114.052505 215.802338,118.510124 196.899277,127.671478 
	C178.387344,136.643265 162.211700,148.844070 149.386719,165.107635 
	C144.551193,171.239655 140.106171,177.679596 135.169403,184.191711 
z"/>
<path fill="#12B347" opacity="1.000000" stroke="none" 
	d="
M55.016457,372.519287 
	C73.516212,361.607361 92.043358,351.052917 110.558998,340.478333 
	C118.454742,335.968964 126.326454,331.417480 134.551254,326.771637 
	C137.699234,330.662140 140.389771,334.753021 143.330948,338.654968 
	C155.568680,354.890472 170.225952,368.365021 187.953644,378.554962 
	C203.668274,387.587799 220.520370,393.073273 238.292389,395.847870 
	C244.133621,396.759827 250.131699,396.667236 256.527893,397.546417 
	C256.989807,428.325317 256.981842,458.591858 256.973907,488.858368 
	C234.826920,489.887421 213.367172,486.088898 192.116837,480.158112 
	C164.017044,472.315674 138.549103,459.194122 115.507362,441.613220 
	C97.826149,428.122375 82.152069,412.361755 69.146042,394.186401 
	C64.190712,387.261536 59.726959,379.984955 55.016457,372.519287 
z"/>
<path fill="#D93F21" opacity="1.000000" stroke="none" 
	d="
M257.434387,113.931641 
	C256.984924,83.592979 256.996826,53.325657 256.990814,22.598999 
	C280.516632,21.040892 303.305145,24.962027 325.776947,31.816982 
	C348.283936,38.682682 369.323029,48.484295 388.564697,61.958256 
	C396.599915,67.584892 404.321716,73.750259 411.639740,80.282677 
	C418.145630,86.090164 417.859650,95.628738 411.689545,101.829765 
	C397.240723,116.351028 382.736816,130.817505 368.241241,145.292206 
	C362.625885,150.899475 355.358063,151.537460 348.623199,147.143005 
	C339.196930,140.992355 330.108063,134.198746 320.212494,128.922501 
	C305.288879,120.965340 289.188812,116.200363 272.175995,115.023445 
	C267.415161,114.694099 262.655792,114.343719 257.434387,113.931641 
z"/>
<path fill="#0F993E" opacity="1.000000" stroke="none" 
	d="
M257.441223,488.915405 
	C256.981842,458.591858 256.989807,428.325317 256.985901,397.599823 
	C282.409332,397.195679 305.954498,390.221924 328.446350,378.000610 
	C342.789093,402.357269 356.780823,426.728210 370.763062,451.104553 
	C371.919983,453.121490 373.013062,455.174957 374.251831,457.556580 
	C363.502075,463.261414 353.030518,469.754364 341.674530,473.705048 
	C326.117828,479.117157 310.063354,483.506226 293.890930,486.604370 
	C282.175507,488.848663 269.922028,488.284363 257.441223,488.915405 
z"/>
</svg>